<svg width="32" height="32" viewBox="0 0 32 32" fill="none" xmlns="http://www.w3.org/2000/svg">
<path d="M30 15H28V7H13V5H28C28.5303 5.00053 29.0387 5.21141 29.4136 5.58637C29.7886 5.96133 29.9995 6.46973 30 7V15Z" fill="black"/>
<path d="M25 20H23V12H8V10H23C23.5303 10.0005 24.0387 10.2114 24.4136 10.5864C24.7886 10.9613 24.9995 11.4697 25 12V20Z" fill="black"/>
<path d="M18 27H4C3.46973 26.9995 2.96133 26.7886 2.58637 26.4136C2.21141 26.0387 2.00053 25.5303 2 25V17C2.00053 16.4697 2.21141 15.9613 2.58637 15.5864C2.96133 15.2114 3.46973 15.0005 4 15H18C18.5303 15.0005 19.0387 15.2114 19.4136 15.5864C19.7886 15.9613 19.9995 16.4697 20 17V25C19.9995 25.5303 19.7886 26.0387 19.4136 26.4136C19.0387 26.7886 18.5303 26.9995 18 27ZM4 17V25H18.001L18 17H4Z" fill="black"/>
</svg>
