<svg width="24" height="25" viewBox="0 0 24 25" fill="none" xmlns="http://www.w3.org/2000/svg">
<path d="M6.75992 22.7109H17.2399C19.9999 22.7109 21.0999 21.0209 21.2299 18.9609L21.7499 10.7009C21.8899 8.54094 20.1699 6.71094 17.9999 6.71094C17.3899 6.71094 16.8299 6.36094 16.5499 5.82094L15.8299 4.37094C15.3699 3.46094 14.1699 2.71094 13.1499 2.71094H10.8599C9.82992 2.71094 8.62992 3.46094 8.16992 4.37094L7.44992 5.82094C7.16992 6.36094 6.60992 6.71094 5.99992 6.71094C3.82992 6.71094 2.10992 8.54094 2.24992 10.7009L2.76992 18.9609C2.88992 21.0209 3.99992 22.7109 6.75992 22.7109Z" stroke="#292D32" stroke-width="1.5" stroke-linecap="round" stroke-linejoin="round"/>
<path d="M10.5 8.71094H13.5" stroke="#292D32" stroke-width="1.5" stroke-linecap="round" stroke-linejoin="round"/>
<path d="M12 18.7109C13.79 18.7109 15.25 17.2509 15.25 15.4609C15.25 13.6709 13.79 12.2109 12 12.2109C10.21 12.2109 8.75 13.6709 8.75 15.4609C8.75 17.2509 10.21 18.7109 12 18.7109Z" stroke="#292D32" stroke-width="1.5" stroke-linecap="round" stroke-linejoin="round"/>
</svg>
