<svg width="24" height="24" viewBox="0 0 24 24" fill="none" xmlns="http://www.w3.org/2000/svg">
<g clip-path="url(#clip0_1799_16054)">
<path d="M8.00006 10.7616H7.42006C6.62856 10.733 5.83963 10.8673 5.10223 11.1563C4.36482 11.4453 3.69468 11.8828 3.13339 12.4416L2.97339 12.6283V18.1482H5.69339V15.0149L6.06006 14.6016L6.22672 14.4083C7.09467 13.5166 8.17524 12.8604 9.36672 12.5016C8.77019 12.0477 8.29971 11.4487 8.00006 10.7616Z" fill="white"/>
<path d="M20.8933 12.4181C20.332 11.8594 19.6619 11.4219 18.9245 11.1329C18.1871 10.8439 17.3981 10.7095 16.6066 10.7381C16.3639 10.7388 16.1213 10.7522 15.88 10.7781C15.5747 11.4227 15.1171 11.9833 14.5466 12.4115C15.8186 12.7634 16.9709 13.4547 17.88 14.4115L18.0466 14.5981L18.4066 15.0115V18.1515H21.0333V12.6048L20.8933 12.4181Z" fill="white"/>
<path d="M7.39992 9.45792H7.60658C7.51056 8.63341 7.65523 7.79874 8.02314 7.05464C8.39104 6.31055 8.96645 5.68885 9.67992 5.26458C9.42129 4.86948 9.06449 4.54832 8.64445 4.33255C8.22441 4.11677 7.75554 4.01379 7.28374 4.03367C6.81194 4.05355 6.35339 4.19562 5.95299 4.44597C5.5526 4.69632 5.22408 5.04636 4.99962 5.46182C4.77515 5.87727 4.66243 6.34391 4.67249 6.81602C4.68256 7.28813 4.81506 7.74953 5.05702 8.15505C5.29898 8.56057 5.64211 8.8963 6.05281 9.12936C6.46351 9.36242 6.9277 9.48482 7.39992 9.48458V9.45792Z" fill="white"/>
<path d="M16.2866 8.95613C16.2947 9.10936 16.2947 9.2629 16.2866 9.41613C16.4145 9.43641 16.5437 9.44755 16.6732 9.44946H16.7999C17.27 9.4244 17.7257 9.27802 18.1225 9.02458C18.5192 8.77115 18.8436 8.4193 19.0641 8.00328C19.2845 7.58726 19.3935 7.12125 19.3803 6.65062C19.3672 6.17999 19.2324 5.72078 18.9891 5.3177C18.7459 4.91462 18.4023 4.5814 17.992 4.35048C17.5818 4.11957 17.1187 3.99882 16.6479 4.00001C16.177 4.00119 15.7146 4.12427 15.3054 4.35724C14.8963 4.59022 14.5545 4.92516 14.3132 5.32947C14.9166 5.72342 15.4128 6.261 15.7572 6.89398C16.1016 7.52695 16.2835 8.23553 16.2866 8.95613Z" fill="white"/>
<path d="M11.9134 11.9444C13.5592 11.9444 14.8933 10.6102 14.8933 8.96438C14.8933 7.31857 13.5592 5.98438 11.9134 5.98438C10.2675 5.98438 8.93335 7.31857 8.93335 8.96438C8.93335 10.6102 10.2675 11.9444 11.9134 11.9444Z" fill="white"/>
<path d="M12.0734 13.5372C11.2028 13.5021 10.334 13.6434 9.51944 13.9528C8.70485 14.2621 7.96126 14.733 7.33341 15.3372L7.16675 15.5239V19.7439C7.16935 19.8813 7.19901 20.0169 7.25402 20.1429C7.30904 20.2689 7.38834 20.3829 7.4874 20.4782C7.58645 20.5735 7.70332 20.6484 7.83132 20.6986C7.95933 20.7488 8.09596 20.7732 8.23341 20.7706H15.8934C16.0309 20.7732 16.1675 20.7488 16.2955 20.6986C16.4235 20.6484 16.5404 20.5735 16.6394 20.4782C16.7385 20.3829 16.8178 20.2689 16.8728 20.1429C16.9278 20.0169 16.9575 19.8813 16.9601 19.7439V15.5372L16.8001 15.3372C16.1763 14.7312 15.4353 14.2589 14.6225 13.9494C13.8097 13.6399 12.9423 13.4996 12.0734 13.5372V13.5372Z" fill="white"/>
</g>
<defs>
<clipPath id="clip0_1799_16054">
<rect width="24" height="24" fill="white"/>
</clipPath>
</defs>
</svg>
