<svg width="23" height="21" viewBox="0 0 23 21" fill="none" xmlns="http://www.w3.org/2000/svg">
<path d="M15 10.5H16.5V13.32L18.94 14.73L18.19 16.03L15 14.19V10.5ZM16 8.5C14.6739 8.5 13.4021 9.02678 12.4645 9.96447C11.5268 10.9021 11 12.1739 11 13.5C11 14.8261 11.5268 16.0979 12.4645 17.0355C13.4021 17.9732 14.6739 18.5 16 18.5C17.3261 18.5 18.5979 17.9732 19.5355 17.0355C20.4732 16.0979 21 14.8261 21 13.5C21 12.1739 20.4732 10.9021 19.5355 9.96447C18.5979 9.02678 17.3261 8.5 16 8.5ZM16 6.5C17.8565 6.5 19.637 7.2375 20.9497 8.55025C22.2625 9.86301 23 11.6435 23 13.5C23 15.3565 22.2625 17.137 20.9497 18.4497C19.637 19.7625 17.8565 20.5 16 20.5C13.21 20.5 10.8 18.86 9.67 16.5H0V13.5C0 10.84 5.33 9.5 8 9.5C8.6 9.5 9.34 9.57 10.12 9.7C10.7543 8.71741 11.6249 7.90961 12.6521 7.35056C13.6794 6.79151 14.8305 6.49907 16 6.5ZM9 13.5C9 12.8 9.1 12.12 9.29 11.5C8.87 11.43 8.43 11.4 8 11.4C5.03 11.4 1.9 12.86 1.9 13.5V14.6H9.09C9.02985 14.2364 8.99974 13.8685 9 13.5ZM8 0.5C9.06087 0.5 10.0783 0.921427 10.8284 1.67157C11.5786 2.42172 12 3.43913 12 4.5C12 5.56087 11.5786 6.57828 10.8284 7.32843C10.0783 8.07857 9.06087 8.5 8 8.5C6.93913 8.5 5.92172 8.07857 5.17157 7.32843C4.42143 6.57828 4 5.56087 4 4.5C4 3.43913 4.42143 2.42172 5.17157 1.67157C5.92172 0.921427 6.93913 0.5 8 0.5ZM8 2.4C7.44305 2.4 6.9089 2.62125 6.51508 3.01508C6.12125 3.4089 5.9 3.94305 5.9 4.5C5.9 5.05695 6.12125 5.5911 6.51508 5.98492C6.9089 6.37875 7.44305 6.6 8 6.6C8.55695 6.6 9.0911 6.37875 9.48492 5.98492C9.87875 5.5911 10.1 5.05695 10.1 4.5C10.1 3.94305 9.87875 3.4089 9.48492 3.01508C9.0911 2.62125 8.55695 2.4 8 2.4Z" fill="white"/>
</svg>
