<svg width="24" height="25" viewBox="0 0 24 25" fill="none" xmlns="http://www.w3.org/2000/svg">
<path d="M12 2.75C6.624 2.75 2.25 7.124 2.25 12.5C2.25 17.876 6.624 22.25 12 22.25C17.376 22.25 21.75 17.876 21.75 12.5C21.75 7.124 17.376 2.75 12 2.75ZM12 4.25C16.5653 4.25 20.25 7.93475 20.25 12.5C20.25 17.0653 16.5653 20.75 12 20.75C7.43475 20.75 3.75 17.0653 3.75 12.5C3.75 7.93475 7.43475 4.25 12 4.25ZM9.165 8.585L8.085 9.665L10.923 12.5L8.0865 15.335L9.1665 16.415L12 13.5778L14.835 16.4127L15.915 15.335L13.0778 12.5L15.9127 9.665L14.835 8.585L12 11.423L9.165 8.5865V8.585Z" fill="black"/>
</svg>
