<svg width="207" height="195" viewBox="0 0 207 195" fill="none" xmlns="http://www.w3.org/2000/svg">
<circle cx="120.225" cy="86" r="86" fill="#25A244" fill-opacity="0.11"/>
<path d="M106.18 52.8375L108.555 48.7239C111.8 43.104 118.986 41.1784 124.606 44.4231C130.226 47.6678 132.152 54.854 128.907 60.4739L126.532 64.5875C145.185 75.3571 151.577 99.2091 140.807 117.863L117.307 158.566C114.546 163.349 116.184 169.465 120.967 172.226C121.924 172.778 122.252 174.001 121.699 174.958L114.449 187.515C113.897 188.472 112.674 188.8 111.717 188.247L1.73205 124.747C0.775468 124.195 0.447716 122.972 1 122.015L8.25 109.458C8.80228 108.501 10.0255 108.174 10.9821 108.726L12.2811 109.476C17.064 112.237 23.1799 110.599 25.9413 105.816L47.4413 68.5766C59.3155 48.01 85.6139 40.9634 106.18 52.8375Z" fill="#25A244" fill-opacity="0.15"/>
<path d="M105.93 53.2705L106.363 53.5205L106.613 53.0875L108.988 48.9739C112.095 43.5931 118.975 41.7495 124.356 44.8561C129.737 47.9627 131.581 54.8431 128.474 60.2239L126.099 64.3375L125.849 64.7705L126.282 65.0205C144.696 75.652 151.005 99.1982 140.374 117.613L116.874 158.316C113.975 163.338 115.695 169.759 120.717 172.659C121.435 173.073 121.681 173.991 121.266 174.708L114.016 187.265C113.602 187.983 112.685 188.229 111.967 187.814L1.98205 124.314C1.26461 123.9 1.0188 122.983 1.43301 122.265L8.68301 109.708C9.09722 108.991 10.0146 108.745 10.7321 109.159L12.0311 109.909C17.0532 112.808 23.4749 111.088 26.3744 106.066L47.8744 68.8266C59.6104 48.4992 85.603 41.5345 105.93 53.2705Z" stroke="#25A244" stroke-opacity="0.7"/>
<mask id="path-4-inside-1_5787_33492" fill="white">
<path d="M64.3179 164.345C62.1962 168.02 61.6212 172.388 62.7195 176.487C63.8178 180.585 66.4994 184.08 70.1743 186.202C73.8493 188.324 78.2166 188.899 82.3154 187.8C86.4143 186.702 89.909 184.02 92.0307 180.345L78.1743 172.345L64.3179 164.345Z"/>
</mask>
<path d="M64.3179 164.345C62.1962 168.02 61.6212 172.388 62.7195 176.487C63.8178 180.585 66.4994 184.08 70.1743 186.202C73.8493 188.324 78.2166 188.899 82.3154 187.8C86.4143 186.702 89.909 184.02 92.0307 180.345L78.1743 172.345L64.3179 164.345Z" fill="#25A244" fill-opacity="0.7" stroke="#25A244" stroke-opacity="0.7" stroke-width="2" mask="url(#path-4-inside-1_5787_33492)"/>
<circle cx="60.7247" cy="23.5" r="6.5" fill="#25A244" fill-opacity="0.7"/>
<circle cx="165.725" cy="104.5" r="6.5" fill="#CCCCCC"/>
<circle cx="165.725" cy="104.5" r="6" stroke="#25A244" stroke-opacity="0.7"/>
<circle cx="17.7247" cy="88.5" r="6" stroke="#25A244" stroke-opacity="0.7"/>
</svg>
