<svg width="144" height="186" viewBox="0 0 144 186" fill="none" xmlns="http://www.w3.org/2000/svg">
<circle cx="72" cy="72.4585" r="71.5" fill="#E7F5EA"/>
<rect x="43.9505" y="71.0012" width="70" height="98" rx="7" transform="rotate(2.5 43.9505 71.0012)" fill="#E7F5EA" stroke="#92D0A1" stroke-width="2"/>
<rect x="2.33579" y="65.1392" width="74" height="102" rx="9" transform="rotate(-7.5 2.33579 65.1392)" fill="#FAFAFA" stroke="#92D0A1" stroke-width="2"/>
<path d="M4.50222 73.9316C3.92552 69.5512 7.00909 65.5326 11.3896 64.9559L66.9105 57.6464C71.291 57.0697 75.3095 60.1533 75.8862 64.5338L77.8441 79.4054L6.46011 88.8033L4.50222 73.9316Z" fill="#E7F5EA"/>
<rect x="90.3662" y="59.6015" width="3" height="10" rx="1.5" transform="rotate(82.5 90.3662 59.6015)" fill="#25A244"/>
<rect x="62.9695" y="43.0358" width="3" height="10" rx="1.5" transform="rotate(-7.5 62.9695 43.0358)" fill="#25A244"/>
<rect x="80.5471" y="45.7648" width="3" height="10" rx="1.5" transform="rotate(37.5 80.5471 45.7648)" fill="#25A244"/>
<rect x="13.9221" y="91.8554" width="58" height="4" rx="2" transform="rotate(-7.5 13.9221 91.8554)" fill="#E7F5EA"/>
<rect x="16.5327" y="111.684" width="58" height="4" rx="2" transform="rotate(-7.5 16.5327 111.684)" fill="#E7F5EA"/>
<rect x="19.1433" y="131.513" width="58" height="4" rx="2" transform="rotate(-7.5 19.1433 131.513)" fill="#E7F5EA"/>
<rect x="14.9663" y="99.787" width="21" height="4" rx="2" transform="rotate(-7.5 14.9663 99.787)" fill="#E7F5EA"/>
<rect x="17.5769" y="119.616" width="21" height="4" rx="2" transform="rotate(-7.5 17.5769 119.616)" fill="#E7F5EA"/>
<rect x="20.1875" y="139.445" width="21" height="4" rx="2" transform="rotate(-7.5 20.1875 139.445)" fill="#E7F5EA"/>
</svg>
