<svg width="24" height="25" viewBox="0 0 24 25" fill="none" xmlns="http://www.w3.org/2000/svg">
<path d="M14.2617 15.9375H9.26172" stroke="#25A244" stroke-miterlimit="10" stroke-linecap="round" stroke-linejoin="round"/>
<path d="M11.7617 13.5V18.5" stroke="#25A244" stroke-miterlimit="10" stroke-linecap="round" stroke-linejoin="round"/>
<path d="M12.66 3.01814L12.63 3.08814L9.72996 9.81814H6.87996C6.19996 9.81814 5.54996 9.95814 4.95996 10.2081L6.70996 6.02814L6.74996 5.92814L6.81996 5.76814C6.83996 5.70814 6.85996 5.64814 6.88996 5.59814C8.19996 2.56814 9.67996 1.87814 12.66 3.01814Z" stroke="#25A244" stroke-linecap="round" stroke-linejoin="round"/>
<path d="M18.05 10.0156C17.6 9.87563 17.12 9.81562 16.64 9.81562H9.72998L12.63 3.08562L12.66 3.01562C12.81 3.06563 12.95 3.13563 13.1 3.19563L15.31 4.12563C16.54 4.63563 17.4 5.16562 17.92 5.80562C18.02 5.92562 18.1 6.03563 18.17 6.16563C18.26 6.30563 18.33 6.44562 18.37 6.59562C18.41 6.68562 18.44 6.77563 18.46 6.85563C18.73 7.69563 18.57 8.72563 18.05 10.0156Z" stroke="#25A244" stroke-linecap="round" stroke-linejoin="round"/>
<path d="M21.5217 14.7003V16.6503C21.5217 16.8503 21.5117 17.0503 21.5017 17.2503C21.3117 20.7403 19.3617 22.5003 15.6617 22.5003H7.86172C7.62172 22.5003 7.38172 22.4803 7.15172 22.4503C3.97172 22.2403 2.27172 20.5403 2.06172 17.3603C2.03172 17.1303 2.01172 16.8903 2.01172 16.6503V14.7003C2.01172 12.6903 3.23172 10.9603 4.97172 10.2103C5.57172 9.96031 6.21172 9.82031 6.89172 9.82031H16.6517C17.1417 9.82031 17.6217 9.89031 18.0617 10.0203C20.0517 10.6303 21.5217 12.4903 21.5217 14.7003Z" stroke="#25A244" stroke-linecap="round" stroke-linejoin="round"/>
<path d="M6.71 6.03125L4.96 10.2112C3.22 10.9612 2 12.6913 2 14.7013V11.7713C2 8.93125 4.02 6.56125 6.71 6.03125Z" stroke="#25A244" stroke-linecap="round" stroke-linejoin="round"/>
<path d="M21.5186 11.7638V14.6938C21.5186 12.4938 20.0586 10.6237 18.0586 10.0237C18.5786 8.72375 18.7286 7.70375 18.4786 6.85375C18.4586 6.76375 18.4286 6.67375 18.3886 6.59375C20.2486 7.55375 21.5186 9.52375 21.5186 11.7638Z" stroke="#25A244" stroke-linecap="round" stroke-linejoin="round"/>
</svg>
