<svg width="19" height="18" viewBox="0 0 19 18" fill="none" xmlns="http://www.w3.org/2000/svg">
<path d="M8.40921 6.34934C8.80917 5.62934 9.40921 5.0293 10.0892 4.60938C8.90921 4.62946 6.90921 4.66936 4.96917 4.66936C4.74916 4.66936 4.52917 4.66936 4.30917 4.68931C2.54927 4.78934 1.04927 5.98938 0.589161 7.66935L0.0291605 9.70938C-0.0908182 10.1693 0.169229 10.6294 0.629197 10.7694C0.709276 10.7893 0.789215 10.7893 0.869155 10.7893C1.24919 10.7893 1.58916 10.5293 1.68919 10.1493L2.24919 8.10922C2.36917 7.68915 2.60912 7.3093 2.90919 7.00919L2.88924 10.1292L1.10924 16.4295C0.969173 16.9295 1.26926 17.4495 1.76924 17.6095C1.84918 17.6294 1.94921 17.6495 2.02929 17.6495C2.44936 17.6495 2.82922 17.3695 2.94936 16.9494L4.72936 10.6494H5.12933L5.14928 16.6894C5.14928 17.2094 5.56935 17.6294 6.10924 17.6294C6.62921 17.6294 7.04924 17.2094 7.04924 16.6695L7.0092 6.34948C7.5092 6.36943 7.96917 6.34934 8.40917 6.34934L8.40921 6.34934Z" fill="white"/>
<path d="M6.86926 2.25167C6.86926 3.30092 6.01869 4.15163 4.9693 4.15163C3.92005 4.15163 3.06934 3.30092 3.06934 2.25167C3.06934 1.20228 3.92005 0.351562 4.9693 0.351562C6.01869 0.351562 6.86926 1.20228 6.86926 2.25167Z" fill="white"/>
<path d="M18.3688 1.35591C17.9089 1.23593 17.4488 1.51593 17.3288 1.97587L17.0088 3.2758C16.8288 3.9958 16.2088 4.51576 15.4488 4.57573C14.7487 4.63572 13.9687 4.65567 13.1088 4.65567C12.8888 4.65567 12.6688 4.65567 12.4288 4.67562C10.6689 4.79587 9.18884 5.99594 8.72881 7.6759L8.16881 9.71593C8.04883 10.1759 8.30888 10.636 8.76884 10.7759C8.84878 10.7959 8.92886 10.816 8.98885 10.816C9.36889 10.816 9.70885 10.5559 9.80889 10.1759L10.3689 8.13587C10.4889 7.7158 10.7288 7.33594 11.0289 7.03583L11.0089 10.1558L9.22894 16.4358C9.08887 16.9358 9.38896 17.4758 9.88894 17.6158C9.96888 17.6357 10.0689 17.6558 10.149 17.6558C10.5691 17.6558 10.9489 17.3758 11.0691 16.9557L12.8491 10.6557H13.249L13.269 16.6957C13.269 17.2157 13.689 17.6557 14.2289 17.6557C14.7489 17.6557 15.1889 17.2356 15.1889 16.6957L15.1489 6.33573C15.2889 6.33573 15.4288 6.31578 15.5689 6.31578C17.049 6.1958 18.2889 5.15578 18.6489 3.71575L18.9689 2.41582C19.0887 1.93578 18.8087 1.47582 18.3687 1.35568L18.3688 1.35591Z" fill="white"/>
<path d="M15.0089 2.25167C15.0089 3.30092 14.1582 4.15163 13.1089 4.15163C12.0596 4.15163 11.209 3.30092 11.209 2.25167C11.209 1.20228 12.0596 0.351562 13.1089 0.351562C14.1582 0.351562 15.0089 1.20228 15.0089 2.25167Z" fill="white"/>
</svg>
