<svg width="25" height="24" viewBox="0 0 25 24" fill="none" xmlns="http://www.w3.org/2000/svg">
<path d="M10 13.7522C10 14.7222 10.75 15.5022 11.67 15.5022H13.55C14.35 15.5022 15 14.8222 15 13.9722C15 13.0622 14.6 12.7322 14.01 12.5222L11 11.4722C10.41 11.2622 10.01 10.9422 10.01 10.0222C10.01 9.18219 10.66 8.49219 11.46 8.49219H13.34C14.26 8.49219 15.01 9.27219 15.01 10.2422" stroke="#F00404" stroke-width="1.5" stroke-linecap="round" stroke-linejoin="round"/>
<path d="M12.5 7.5V16.5" stroke="#F00404" stroke-width="1.5" stroke-linecap="round" stroke-linejoin="round"/>
<path d="M22.5 12C22.5 17.52 18.02 22 12.5 22C6.98 22 2.5 17.52 2.5 12C2.5 6.48 6.98 2 12.5 2" stroke="#F00404" stroke-width="1.5" stroke-linecap="round" stroke-linejoin="round"/>
<path d="M22.5 6V2H18.5" stroke="#F00404" stroke-width="1.5" stroke-linecap="round" stroke-linejoin="round"/>
<path d="M17.5 7L22.5 2" stroke="#F00404" stroke-width="1.5" stroke-linecap="round" stroke-linejoin="round"/>
</svg>
