<svg width="24" height="24" viewBox="0 0 24 24" fill="none" xmlns="http://www.w3.org/2000/svg">
<path d="M9.5 13.7522C9.5 14.7222 10.25 15.5022 11.17 15.5022H13.05C13.85 15.5022 14.5 14.8222 14.5 13.9722C14.5 13.0622 14.1 12.7322 13.51 12.5222L10.5 11.4722C9.91 11.2622 9.51001 10.9422 9.51001 10.0222C9.51001 9.18219 10.16 8.49219 10.96 8.49219H12.84C13.76 8.49219 14.51 9.27219 14.51 10.2422" stroke="#25A244" stroke-width="1.5" stroke-linecap="round" stroke-linejoin="round"/>
<path d="M12 7.5V16.5" stroke="#25A244" stroke-width="1.5" stroke-linecap="round" stroke-linejoin="round"/>
<path d="M22 12C22 17.52 17.52 22 12 22C6.48 22 2 17.52 2 12C2 6.48 6.48 2 12 2" stroke="#25A244" stroke-width="1.5" stroke-linecap="round" stroke-linejoin="round"/>
<path d="M17 3V7H21" stroke="#25A244" stroke-width="1.5" stroke-linecap="round" stroke-linejoin="round"/>
<path d="M22 2L17 7" stroke="#25A244" stroke-width="1.5" stroke-linecap="round" stroke-linejoin="round"/>
</svg>
