<svg width="24" height="25" viewBox="0 0 24 25" fill="none" xmlns="http://www.w3.org/2000/svg">
<path d="M12.0201 3.61719C8.71009 3.61719 6.02009 6.30719 6.02009 9.61719V12.5072C6.02009 13.1172 5.76009 14.0472 5.45009 14.5672L4.30009 16.4772C3.59009 17.6572 4.08009 18.9672 5.38009 19.4072C9.69009 20.8472 14.3401 20.8472 18.6501 19.4072C19.8601 19.0072 20.3901 17.5772 19.7301 16.4772L18.5801 14.5672C18.2801 14.0472 18.0201 13.1172 18.0201 12.5072V9.61719C18.0201 6.31719 15.3201 3.61719 12.0201 3.61719Z" stroke="#292D32" stroke-width="1.5" stroke-miterlimit="10" stroke-linecap="round"/>
<path d="M13.8699 3.90844C13.5599 3.81844 13.2399 3.74844 12.9099 3.70844C11.9499 3.58844 11.0299 3.65844 10.1699 3.90844C10.4599 3.16844 11.1799 2.64844 12.0199 2.64844C12.8599 2.64844 13.5799 3.16844 13.8699 3.90844Z" stroke="#292D32" stroke-width="1.5" stroke-miterlimit="10" stroke-linecap="round" stroke-linejoin="round"/>
<path d="M15.02 19.7734C15.02 21.4234 13.67 22.7734 12.02 22.7734C11.2 22.7734 10.44 22.4334 9.90002 21.8934C9.36002 21.3534 9.02002 20.5934 9.02002 19.7734" stroke="#292D32" stroke-width="1.5" stroke-miterlimit="10"/>
</svg>
