<svg width="20" height="18" viewBox="0 0 20 18" fill="none" xmlns="http://www.w3.org/2000/svg">
<path d="M18.0001 3.00261H8.94675L7.40675 0.882609C7.28262 0.712745 7.12006 0.574665 6.93236 0.479653C6.74465 0.384642 6.53713 0.335396 6.32675 0.335942H2.00008C1.64646 0.335942 1.30732 0.476418 1.05727 0.726466C0.807224 0.976515 0.666748 1.31565 0.666748 1.66928V16.3359C0.666748 16.6896 0.807224 17.0287 1.05727 17.2788C1.30732 17.5288 1.64646 17.6693 2.00008 17.6693H18.0001C18.3537 17.6693 18.6928 17.5288 18.9429 17.2788C19.1929 17.0287 19.3334 16.6896 19.3334 16.3359V4.33594C19.3334 3.98232 19.1929 3.64318 18.9429 3.39313C18.6928 3.14308 18.3537 3.00261 18.0001 3.00261ZM2.00008 4.33594V1.66928H6.32675L8.14008 4.33594H2.00008Z" fill="white"/>
</svg>
