<svg width="24" height="24" viewBox="0 0 24 24" fill="none" xmlns="http://www.w3.org/2000/svg">
<path d="M24 12C24 18.627 18.627 24 12 24C5.373 24 0 18.627 0 12C0 5.373 5.373 0 12 0C18.627 0 24 5.373 24 12ZM21 12C21.003 10.1306 20.4212 8.30716 19.336 6.785L6.786 19.336C8.13242 20.293 9.71624 20.8609 11.364 20.9777C13.0117 21.0944 14.6598 20.7554 16.1277 19.9978C17.5956 19.2402 18.8266 18.0933 19.686 16.6826C20.5454 15.2719 21 13.6519 21 12ZM17.215 4.664C15.4814 3.43163 13.3674 2.85305 11.2479 3.03087C9.12843 3.20869 7.14039 4.13142 5.6364 5.6354C4.13242 7.13939 3.20969 9.12743 3.03187 11.2469C2.85405 13.3664 3.43263 15.4804 4.665 17.214L17.215 4.664Z" fill="white"/>
</svg>
