<svg width="16" height="20" viewBox="0 0 16 20" fill="none" xmlns="http://www.w3.org/2000/svg">
<path d="M5.2282 0C3.10249 0 1.36713 1.74025 1.36713 3.86607C1.36713 5.99189 3.10249 7.72821 5.2282 7.72821C7.35402 7.72821 9.09426 5.99175 9.09426 3.86607C9.0944 1.74036 7.35416 0 5.2282 0ZM5.23071 8.70107C2.34385 8.70107 0 11.045 0 13.9318V16.8956C0 17.0614 0.0658499 17.2203 0.183036 17.3375C0.300364 17.4548 0.459264 17.5206 0.624999 17.5206H5.03892C4.76158 16.8365 4.6056 16.0921 4.6056 15.3124C4.6056 12.8039 6.19181 10.6474 8.40667 9.78271C7.52638 9.10678 6.42646 8.70107 5.23071 8.70107ZM10.5432 10.6249C7.96174 10.6249 5.85571 12.7309 5.85571 15.3124C5.85571 17.8939 7.96174 19.9999 10.5432 19.9999C13.1247 19.9999 15.2307 17.8939 15.2307 15.3124C15.2307 12.7309 13.1247 10.6249 10.5432 10.6249ZM10.5334 12.512C10.7017 12.5101 10.8637 12.5761 10.9827 12.6951C11.1018 12.8142 11.1678 12.9762 11.1657 13.1444V15.4101C11.1695 15.5782 11.1053 15.7408 10.9877 15.8611C10.8701 15.9814 10.7089 16.0492 10.5407 16.0492C10.3726 16.0492 10.2114 15.9814 10.0938 15.8611C9.97621 15.7409 9.91204 15.5782 9.91566 15.4101V13.1444C9.91385 12.9787 9.97775 12.819 10.0935 12.7004C10.2095 12.5818 10.3677 12.514 10.5334 12.512ZM10.5334 16.5867C10.7015 16.5847 10.8632 16.6506 10.9822 16.7693C11.1012 16.888 11.1674 17.0497 11.1657 17.2178V17.6755C11.1694 17.8437 11.1053 18.0063 10.9877 18.1266C10.8701 18.2468 10.7089 18.3146 10.5407 18.3146C10.3726 18.3146 10.2114 18.2468 10.0938 18.1266C9.9762 18.0063 9.91203 17.8437 9.91565 17.6755V17.2178C9.91412 17.0522 9.97829 16.8928 10.0941 16.7745C10.2099 16.6562 10.3678 16.5886 10.5334 16.5867Z" fill="white"/>
</svg>
