<svg width="20" height="20" viewBox="0 0 20 20" fill="none" xmlns="http://www.w3.org/2000/svg">
<path d="M2.01 4.00781H18.01V6.00781H2.01V4.00781ZM4.01 0.0078125H16.01V2.00781H4.01V0.0078125ZM18 7.99781H2C1.46957 7.99781 0.960859 8.20853 0.585786 8.5836C0.210714 8.95867 0 9.46738 0 9.99781V17.9978C0 18.5282 0.210714 19.037 0.585786 19.412C0.960859 19.7871 1.46957 19.9978 2 19.9978H18C18.5304 19.9978 19.0391 19.7871 19.4142 19.412C19.7893 19.037 20 18.5282 20 17.9978V9.99781C20 9.46738 19.7893 8.95867 19.4142 8.5836C19.0391 8.20853 18.5304 7.99781 18 7.99781ZM8.3 17.9978L5 14.7578L6.4 13.3578L8.3 15.2578L13.6 9.95781L15 11.3578L8.3 17.9978Z" fill="white"/>
</svg>
