<svg width="24" height="24" viewBox="0 0 24 24" fill="none" xmlns="http://www.w3.org/2000/svg">
<path fill-rule="evenodd" clip-rule="evenodd" d="M9 5.25C9 5.05109 9.07902 4.86032 9.21967 4.71967C9.36032 4.57902 9.55109 4.5 9.75 4.5H21.75C21.9489 4.5 22.1397 4.57902 22.2803 4.71967C22.421 4.86032 22.5 5.05109 22.5 5.25V18.75C22.5 18.9489 22.421 19.1397 22.2803 19.2803C22.1397 19.421 21.9489 19.5 21.75 19.5H9.75C9.55109 19.5 9.36032 19.421 9.21967 19.2803C9.07902 19.1397 9 18.9489 9 18.75V15.75C9 15.5511 8.92098 15.3603 8.78033 15.2197C8.63968 15.079 8.44891 15 8.25 15C8.05109 15 7.86032 15.079 7.71967 15.2197C7.57902 15.3603 7.5 15.5511 7.5 15.75V18.75C7.5 19.3467 7.73705 19.919 8.15901 20.341C8.58097 20.7629 9.15326 21 9.75 21H21.75C22.3467 21 22.919 20.7629 23.341 20.341C23.7629 19.919 24 19.3467 24 18.75V5.25C24 4.65326 23.7629 4.08097 23.341 3.65901C22.919 3.23705 22.3467 3 21.75 3H9.75C9.15326 3 8.58097 3.23705 8.15901 3.65901C7.73705 4.08097 7.5 4.65326 7.5 5.25V8.25C7.5 8.44891 7.57902 8.63968 7.71967 8.78033C7.86032 8.92098 8.05109 9 8.25 9C8.44891 9 8.63968 8.92098 8.78033 8.78033C8.92098 8.63968 9 8.44891 9 8.25V5.25Z" fill="black"/>
<path fill-rule="evenodd" clip-rule="evenodd" d="M17.781 12.5319C17.8508 12.4623 17.9063 12.3795 17.9441 12.2884C17.9819 12.1973 18.0013 12.0996 18.0013 12.0009C18.0013 11.9023 17.9819 11.8046 17.9441 11.7135C17.9063 11.6224 17.8508 11.5396 17.781 11.4699L13.281 6.96995C13.2113 6.90022 13.1285 6.8449 13.0374 6.80716C12.9463 6.76942 12.8486 6.75 12.75 6.75C12.6514 6.75 12.5537 6.76942 12.4626 6.80716C12.3715 6.8449 12.2887 6.90022 12.219 6.96995C12.1493 7.03968 12.094 7.12246 12.0562 7.21357C12.0185 7.30468 11.9991 7.40233 11.9991 7.50095C11.9991 7.59956 12.0185 7.69721 12.0562 7.78832C12.094 7.87943 12.1493 7.96222 12.219 8.03195L15.4395 11.2509H2.25C2.05109 11.2509 1.86032 11.33 1.71967 11.4706C1.57902 11.6113 1.5 11.802 1.5 12.0009C1.5 12.1999 1.57902 12.3906 1.71967 12.5313C1.86032 12.6719 2.05109 12.7509 2.25 12.7509H15.4395L12.219 15.9699C12.1493 16.0397 12.094 16.1225 12.0562 16.2136C12.0185 16.3047 11.9991 16.4023 11.9991 16.5009C11.9991 16.5996 12.0185 16.6972 12.0562 16.7883C12.094 16.8794 12.1493 16.9622 12.219 17.0319C12.2887 17.1017 12.3715 17.157 12.4626 17.1947C12.5537 17.2325 12.6514 17.2519 12.75 17.2519C12.8486 17.2519 12.9463 17.2325 13.0374 17.1947C13.1285 17.157 13.2113 17.1017 13.281 17.0319L17.781 12.5319Z" fill="black"/>
</svg>
