<svg width="142" height="102" viewBox="0 0 142 102" fill="none" xmlns="http://www.w3.org/2000/svg">
<path fill-rule="evenodd" clip-rule="evenodd" d="M97.6113 0.0913552C97.2785 -0.0304517 96.9132 -0.0304517 96.5804 0.0913552L53.4291 15.8821C52.8378 16.0985 52.4446 16.6611 52.4446 17.2908V29.7664H37.1218C35.9187 26.8822 33.072 24.855 29.7518 24.855C25.3434 24.855 21.7697 28.4286 21.7697 32.837C21.7697 37.2453 25.3434 40.819 29.7518 40.819C32.4318 40.819 34.8033 39.4982 36.2509 37.472H58.563V29.7664H53.9446V29.758H55.4446V18.3392L97.0958 3.09728L138.747 18.3392V56.7678C138.747 73.481 123.252 90.7601 97.0956 98.6273C78.1279 92.9375 64.7952 83.3196 58.8788 71.3698H61.6452V63.6643H37.03C35.7783 60.8929 32.9903 58.9642 29.7518 58.9642C25.3434 58.9642 21.7697 62.5379 21.7697 66.9463C21.7697 71.3546 25.3434 74.9283 29.7518 74.9283C32.5239 74.9283 34.966 73.5151 36.3969 71.3698H55.5479C61.6574 85.0513 76.4302 95.6485 96.6707 101.631C96.9482 101.713 97.2435 101.713 97.521 101.631C124.532 93.6472 141.747 75.4934 141.747 56.7678V17.2908C141.747 16.6611 141.354 16.0985 140.763 15.8821L97.6113 0.0913552ZM72.7551 32.4068H63.8572V45.8982H15.0953C13.7747 43.312 11.0851 41.5413 7.98201 41.5413C3.57367 41.5413 0 45.1149 0 49.5233C0 53.9316 3.57367 57.5053 7.98201 57.5053C10.7828 57.5053 13.2466 56.0628 14.6711 53.8803H64.499C66.5262 61.6269 72.2665 62.4413 76.926 62.7154C80.7077 62.9379 84.6191 60.5836 86.1021 59.3787V72.1695C88.3265 78.6205 94.0731 79.6772 96.6684 79.3991C103.119 80.0664 106.771 74.8574 107.791 72.1695V59.6568C110.905 62.5486 115.02 62.9008 116.689 62.7154C120.025 62.9935 131.704 58.8226 131.426 47.4221C131.148 36.0216 122.25 32.4068 116.689 31.8506C112.24 31.4058 108.347 34.0751 106.957 35.4654V32.4068H109.459L102.786 22.9527L96.1122 32.4068H99.1709L98.6148 69.945C96.6128 71.9471 95.1854 70.7792 94.7219 69.945L94.1658 32.4068H85.2679V50.2027C85.0825 51.9637 83.5439 55.4858 78.8725 55.4858C74.201 55.4858 72.8478 51.9637 72.7551 50.2027V32.4068ZM122.805 47.4249C122.805 51.8784 119.32 55.4886 115.02 55.4886C110.72 55.4886 107.234 51.8784 107.234 47.4249C107.234 42.9714 110.72 39.3611 115.02 39.3611C119.32 39.3611 122.805 42.9714 122.805 47.4249ZM29.7522 37.1912C32.1567 37.1912 34.106 35.242 34.106 32.8374C34.106 30.4329 32.1567 28.4836 29.7522 28.4836C27.3476 28.4836 25.3984 30.4329 25.3984 32.8374C25.3984 35.242 27.3476 37.1912 29.7522 37.1912ZM12.3363 49.5237C12.3363 51.9283 10.387 53.8775 7.98245 53.8775C5.5779 53.8775 3.62862 51.9283 3.62862 49.5237C3.62862 47.1192 5.5779 45.1699 7.98245 45.1699C10.387 45.1699 12.3363 47.1192 12.3363 49.5237ZM29.7522 71.3005C32.1567 71.3005 34.106 69.3512 34.106 66.9467C34.106 64.5421 32.1567 62.5929 29.7522 62.5929C27.3476 62.5929 25.3984 64.5421 25.3984 66.9467C25.3984 69.3512 27.3476 71.3005 29.7522 71.3005Z" fill="white"/>
</svg>
